<svg version="1.1" id="Layer_1" xmlns="http://www.w3.org/2000/svg" xmlns:xlink="http://www.w3.org/1999/xlink" x="0px" y="0px"
	 width="100%" viewBox="0 0 128 128" enable-background="new 0 0 128 128" xml:space="preserve">
<path fill="#2A2E32" opacity="1.000000" stroke="none" 
	d="
M129.000000,34.000000 
	C129.000000,65.999992 129.000000,97.499992 129.000000,129.000000 
	C86.333344,129.000000 43.666683,129.000000 1.000020,129.000000 
	C1.000013,86.333344 1.000013,43.666695 1.000007,1.000031 
	C43.666645,1.000021 86.333290,1.000021 128.999969,1.000010 
	C129.000000,11.833333 129.000000,22.666666 129.000000,34.000000 
M54.904934,126.090828 
	C58.792789,125.767448 62.680641,125.444061 66.494781,125.793045 
	C67.137398,125.840027 67.780006,125.887001 69.294044,126.077362 
	C73.858994,126.042130 78.423943,126.006897 83.736168,126.102119 
	C84.490921,126.085709 85.245682,126.069298 86.652794,126.198082 
	C87.304306,126.081337 87.955811,125.964584 89.572556,126.001862 
	C92.742256,125.998276 95.911964,125.994690 99.717140,126.090042 
	C100.141014,126.043854 100.564888,125.997665 101.840309,126.095177 
	C103.563446,126.043335 105.286575,125.991493 107.716194,126.089828 
	C111.481804,126.036705 115.247414,125.983582 119.754364,126.001068 
	C124.201141,125.096939 126.112129,122.233055 126.131790,117.844833 
	C126.160034,111.541443 126.339096,105.236824 126.254959,98.935387 
	C126.175720,93.000725 125.838898,87.069489 125.852654,80.207352 
	C125.668343,75.186569 125.484024,70.165794 125.964844,64.581512 
	C125.972343,58.389221 125.979843,52.196930 126.186234,45.105614 
	C126.116905,41.737164 126.047569,38.368713 126.174278,34.165169 
	C126.110657,32.455090 126.047035,30.745014 126.167137,28.154202 
	C126.117523,25.768066 126.067917,23.381933 126.196609,20.090172 
	C126.202766,18.262033 126.247902,16.433054 126.208420,14.605903 
	C126.022682,6.011072 123.653648,3.817778 114.143555,4.067914 
	C112.211784,4.085708 110.280014,4.103502 107.672371,4.058778 
	C107.449959,4.100259 107.227547,4.141740 106.075562,4.043442 
	C89.057564,4.091325 72.039566,4.139208 54.098804,4.042403 
	C49.723213,4.094123 45.347622,4.145843 40.050060,4.056075 
	C30.919563,4.047868 21.787342,3.928638 12.659167,4.070214 
	C6.501922,4.165711 4.126750,6.837165 4.042845,13.870317 
	C4.093044,17.504387 4.143243,21.138456 4.075264,25.457075 
	C4.321475,25.778090 4.567686,26.099104 4.157409,26.974119 
	C4.166090,28.411762 4.174770,29.849407 4.043950,32.096855 
	C4.088589,34.450546 4.133228,36.804234 4.061088,40.195129 
	C4.101496,54.129353 4.141904,68.063576 4.041457,82.733353 
	C4.088220,83.477386 4.134982,84.221413 4.041806,85.823959 
	C4.098665,88.595665 4.155524,91.367378 4.070834,94.987808 
	C4.116338,96.423653 4.161841,97.859497 4.066760,100.061859 
	C4.112424,101.621376 4.158088,103.180885 4.064533,105.254990 
	C4.107435,106.133377 4.150337,107.011765 4.059814,108.648811 
	C4.105230,111.784431 4.150645,114.920044 4.089701,118.884361 
	C4.771571,123.978157 7.715395,126.271080 12.811431,126.144096 
	C18.545872,126.001198 24.284081,126.009415 30.945942,126.089226 
	C38.629017,126.032570 46.312096,125.975906 54.904934,126.090828 
z"/>
<path fill="#1EF2FD" opacity="1.000000" stroke="none" 
	d="
M4.181744,84.965446 
	C4.134982,84.221413 4.088220,83.477386 4.450572,82.260132 
	C5.904890,79.370148 7.896190,76.927963 7.832070,74.540993 
	C7.549396,64.017891 6.674286,53.510715 6.347458,43.078156 
	C9.925900,45.419395 13.292708,47.526237 16.386423,49.977718 
	C20.869995,53.530525 25.146904,55.430859 29.660246,50.088440 
	C30.131874,49.530174 31.122890,49.394325 31.888454,49.103340 
	C37.981960,46.787285 44.573254,45.524372 49.308529,40.390858 
	C50.091812,39.541695 51.674290,39.429722 52.801891,39.334312 
	C50.706360,42.052673 49.935074,44.367767 52.602657,46.875011 
	C53.902969,48.097168 54.944515,49.594643 55.772400,51.121552 
	C55.010277,54.466389 54.578953,57.657166 54.028618,61.728333 
	C53.456459,62.048702 51.641197,63.065121 49.478123,64.126595 
	C46.498379,64.822815 45.500195,66.355103 46.726868,68.909859 
	C48.860813,73.354134 50.803703,77.923355 53.354786,82.119102 
	C54.504341,84.009766 56.924126,85.128105 58.987701,86.914635 
	C61.556145,88.183945 63.904472,89.135483 66.249603,90.533447 
	C65.487289,96.113319 66.175514,100.885597 69.263954,104.947937 
	C67.865028,104.963280 66.932671,104.973198 65.887634,104.665207 
	C62.524754,102.744682 58.701164,99.166901 56.132687,99.912537 
	C48.649918,102.084816 41.925720,100.357796 35.252750,98.036095 
	C32.651287,97.130981 30.770084,94.194336 28.519672,92.230156 
	C26.507448,90.473885 24.672499,88.281601 22.335123,87.190170 
	C19.464888,85.849930 16.186827,85.238144 13.017439,84.755623 
	C11.768961,84.565559 10.337960,85.574364 8.644962,85.964722 
	C6.927149,85.583275 5.554446,85.274361 4.181744,84.965446 
z"/>
<path fill="#1AB5D9" opacity="1.000000" stroke="none" 
	d="
M4.196061,118.055664 
	C4.150645,114.920044 4.105230,111.784431 4.581767,108.300446 
	C8.941760,108.861511 12.766611,109.831902 16.620991,110.665810 
	C22.148605,111.861748 27.699903,112.947823 33.236843,114.101189 
	C36.163902,114.710907 39.081974,115.363785 42.431534,115.996193 
	C44.568623,115.983803 46.278275,115.972397 48.333443,116.052002 
	C52.453873,117.759026 56.228786,119.375023 60.002777,121.392921 
	C60.001415,122.865997 60.000973,123.937172 59.571335,125.009827 
	C57.423439,125.021797 55.704742,125.032295 53.526627,125.032524 
	C49.393318,124.988586 45.719418,124.954926 41.918533,124.609314 
	C36.990887,123.204041 32.232220,121.844917 27.379944,121.078300 
	C19.684879,119.862534 11.927231,119.042892 4.196061,118.055664 
z"/>
<path fill="#1BCEE1" opacity="1.000000" stroke="none" 
	d="
M107.009712,125.939651 
	C105.286575,125.991493 103.563446,126.043335 101.326797,125.721634 
	C100.444496,124.848320 100.075714,124.348541 99.773087,123.474884 
	C100.526886,119.221497 97.812866,118.582779 94.760239,117.777664 
	C93.681541,115.352097 92.850937,113.179161 92.351929,110.924835 
	C94.333694,109.518478 95.890045,108.047409 97.660851,106.910301 
	C99.373726,105.810387 101.585381,103.953972 103.096481,104.335716 
	C110.029892,106.087234 117.892868,103.779472 124.018753,109.424850 
	C124.019203,111.570923 124.013512,113.287918 123.642265,115.030716 
	C117.854378,118.684242 112.432045,122.311951 107.009712,125.939651 
z"/>
<path fill="#1DCDE3" opacity="1.000000" stroke="none" 
	d="
M60.003700,120.991028 
	C56.228786,119.375023 52.453873,117.759026 48.335945,115.655304 
	C47.991325,114.104935 47.989716,113.042282 48.295219,111.777626 
	C50.067879,111.380913 51.533428,111.186203 53.162056,111.324402 
	C57.872002,113.885521 69.160347,111.161057 72.974510,106.940628 
	C72.986694,106.963409 72.936646,106.948326 73.309807,106.885902 
	C74.321167,106.667137 74.951530,106.429993 75.598801,106.367241 
	C80.762054,105.866692 88.216774,114.779037 86.789497,119.774948 
	C80.955986,115.463043 80.862396,115.468765 78.789116,120.016411 
	C84.107445,120.641266 84.107445,120.641266 82.988892,125.971664 
	C78.423943,126.006897 73.858994,126.042130 68.916183,125.593422 
	C67.409790,120.179909 62.878826,122.301155 60.003700,120.991028 
z"/>
<path fill="#32F0FB" opacity="1.000000" stroke="none" 
	d="
M4.813895,26.420120 
	C4.567686,26.099104 4.321475,25.778090 4.595046,25.165321 
	C14.727022,26.051212 23.694210,24.915457 31.507648,18.407286 
	C36.177914,14.517210 41.740044,13.369564 47.804474,14.387977 
	C49.467899,14.667318 51.264805,14.151812 53.276585,13.939960 
	C54.035454,13.598600 54.518196,13.318327 55.401367,13.040513 
	C56.869587,13.025258 57.937382,13.007545 59.332756,13.005699 
	C60.097477,13.032247 60.534618,13.042928 60.970200,13.305267 
	C60.971256,13.725027 60.973866,13.893127 61.090752,14.352843 
	C62.152554,15.457282 63.100090,16.270103 63.804138,17.211086 
	C63.034351,17.486317 62.508053,17.633387 61.676567,17.631245 
	C55.208828,18.536180 48.284317,18.157616 43.043488,20.944866 
	C32.368725,26.622063 22.155884,32.922867 9.539745,34.087112 
	C7.793877,33.077534 6.322177,32.237316 4.878052,30.897970 
	C4.875050,29.072599 4.844472,27.746361 4.813895,26.420120 
z"/>
<path fill="#3CF0FA" opacity="1.000000" stroke="none" 
	d="
M53.000458,14.001049 
	C51.264805,14.151812 49.467899,14.667318 47.804474,14.387977 
	C41.740044,13.369564 36.177914,14.517210 31.507648,18.407286 
	C23.694210,24.915457 14.727022,26.051212 4.654135,24.823046 
	C4.143243,21.138456 4.093044,17.504387 4.414268,13.422820 
	C5.192676,12.973569 5.599662,12.971814 6.153918,13.177330 
	C6.544817,13.618277 6.788447,13.851953 7.027120,14.487463 
	C6.712483,17.629583 8.000510,18.829826 10.692040,19.029684 
	C14.326714,19.299574 17.291571,18.401276 19.540871,14.997843 
	C29.310787,13.667176 38.654938,12.336679 48.356171,11.076060 
	C50.136990,11.438257 51.560726,11.730575 52.987831,12.352461 
	C52.994286,13.121703 52.997372,13.561377 53.000458,14.001049 
z"/>
<path fill="#7DF1FD" opacity="1.000000" stroke="none" 
	d="
M107.005127,4.183220 
	C107.227547,4.141740 107.449959,4.100259 108.003220,4.542629 
	C108.158005,8.672218 107.981949,12.317958 107.494171,15.884129 
	C105.792702,15.195263 104.402954,14.585967 102.892731,13.687731 
	C100.215324,11.044328 99.074417,12.918994 98.000664,14.998050 
	C98.000000,14.999886 97.996132,15.000818 97.657791,15.020705 
	C96.213547,15.690123 95.107628,16.339653 93.669495,16.987888 
	C92.894302,16.985620 92.451332,16.984650 91.864853,16.667740 
	C89.478203,15.573938 87.235085,14.796078 84.617500,14.016374 
	C83.493935,14.012211 82.744820,14.009891 81.727074,13.795329 
	C78.117638,11.900799 74.189133,10.796952 74.472023,6.006083 
	C83.877167,6.002150 92.815987,6.097422 101.749290,5.917913 
	C103.512138,5.882488 105.253731,4.788841 107.005127,4.183220 
z"/>
<path fill="#19A0BF" opacity="1.000000" stroke="none" 
	d="
M114.991119,4.177112 
	C123.653648,3.817778 126.022682,6.011072 126.208420,14.605903 
	C126.247902,16.433054 126.202766,18.262033 125.782272,20.656326 
	C122.999832,23.802355 120.204048,24.367041 116.924835,22.643566 
	C112.686966,16.615345 112.867928,10.495988 114.991119,4.177112 
z"/>
<path fill="#70F3FD" opacity="1.000000" stroke="none" 
	d="
M74.003769,6.008986 
	C74.189133,10.796952 78.117638,11.900799 81.409256,13.999426 
	C79.283493,14.343550 77.207069,14.266640 75.130302,14.200359 
	C72.758911,14.124677 70.387215,14.058459 67.643372,13.985060 
	C66.526772,13.962050 65.782455,13.942112 64.907486,13.635283 
	C63.508484,13.250131 62.240124,13.151870 60.971760,13.053608 
	C60.534618,13.042928 60.097477,13.032247 59.224487,12.688985 
	C55.369652,7.655139 51.040344,4.688383 44.549751,5.074154 
	C43.102413,5.054832 42.048580,5.051269 40.990471,4.835133 
	C40.986202,4.622559 40.972031,4.197562 40.972031,4.197562 
	C45.347622,4.145843 49.723213,4.094123 54.920422,4.290707 
	C61.829281,5.029003 67.916527,5.518994 74.003769,6.008986 
z"/>
<path fill="#1AC2E2" opacity="1.000000" stroke="none" 
	d="
M4.142881,118.470016 
	C11.927231,119.042892 19.684879,119.862534 27.379944,121.078300 
	C32.232220,121.844917 36.990887,123.204041 41.458206,124.630211 
	C37.423458,125.292664 33.722054,125.622284 30.020651,125.951904 
	C24.284081,126.009415 18.545872,126.001198 12.811431,126.144096 
	C7.715395,126.271080 4.771571,123.978157 4.142881,118.470016 
z"/>
<path fill="#1DE6F6" opacity="1.000000" stroke="none" 
	d="
M125.987335,46.004639 
	C125.979843,52.196930 125.972343,58.389221 125.382439,64.629417 
	C123.561661,63.104099 122.323296,61.530872 120.856140,59.667000 
	C120.128189,62.591572 119.576843,64.806618 118.743744,66.839966 
	C117.294868,64.803673 116.127731,62.949070 115.120636,60.708061 
	C114.865013,54.871475 114.449348,49.421295 114.351089,44.088455 
	C115.567436,45.145859 116.608994,45.987404 117.339119,47.044117 
	C119.717644,50.486599 121.976189,51.145271 124.395943,47.094032 
	C124.695282,46.592857 125.445862,46.361195 125.987335,46.004639 
z"/>
<path fill="#21CDED" opacity="1.000000" stroke="none" 
	d="
M4.207345,99.295341 
	C4.161841,97.859497 4.116338,96.423653 4.568375,94.526825 
	C8.352240,93.050835 11.245499,93.446938 14.186736,95.545746 
	C15.156907,96.238037 17.355392,95.208977 19.343695,95.043510 
	C21.588427,96.054047 23.615141,96.790733 25.347784,97.962318 
	C29.203373,100.569405 33.780769,102.864586 31.795296,108.885368 
	C31.003735,108.560600 30.500414,108.281631 29.818062,107.713867 
	C22.802505,99.582672 12.665266,102.065651 4.207345,99.295341 
z"/>
<path fill="#20E9F9" opacity="1.000000" stroke="none" 
	d="
M124.007812,115.004906 
	C124.013512,113.287918 124.019203,111.570923 124.021698,109.019531 
	C123.032181,105.500580 121.434769,102.870140 121.191292,100.119835 
	C120.734367,94.958549 120.922997,89.722000 121.147377,84.529900 
	C121.212006,83.034470 122.317703,81.584030 123.162834,80.317322 
	C124.124847,80.726700 124.870117,80.931725 125.615402,81.136749 
	C125.838898,87.069489 126.175720,93.000725 126.254959,98.935387 
	C126.339096,105.236824 126.160034,111.541443 126.131790,117.844833 
	C126.112129,122.233055 124.201141,125.096939 119.492920,125.649071 
	C122.189972,122.500458 124.945389,119.609596 124.007812,115.004906 
z"/>
<path fill="#1ED4E8" opacity="1.000000" stroke="none" 
	d="
M87.029510,120.007950 
	C88.216774,114.779037 80.762054,105.866692 75.598801,106.367241 
	C74.951530,106.429993 74.321167,106.667137 73.360764,106.551399 
	C73.482063,104.561203 73.925552,102.843094 74.811249,101.102921 
	C75.837677,101.048401 76.421898,101.015945 77.381653,101.066429 
	C80.176353,101.762672 82.595512,102.375984 85.004150,103.365700 
	C84.380379,109.852562 85.206360,110.708855 91.995087,110.996521 
	C92.002083,110.999794 92.020325,111.006218 92.020325,111.006218 
	C92.850937,113.179161 93.681541,115.352097 94.503754,117.991150 
	C92.532684,120.920776 90.570000,123.384308 88.607323,125.847839 
	C87.955811,125.964584 87.304306,126.081337 86.320709,125.737640 
	C86.335579,123.520775 86.682549,121.764366 87.029510,120.007950 
z"/>
<path fill="#1EBBDF" opacity="1.000000" stroke="none" 
	d="
M29.997093,108.002663 
	C30.500414,108.281631 31.003735,108.560600 32.139599,108.976875 
	C34.824917,109.780418 36.877689,110.446663 39.020401,111.420486 
	C40.074928,113.151108 41.039516,114.574135 42.004105,115.997169 
	C39.081974,115.363785 36.163902,114.710907 33.236843,114.101189 
	C27.699903,112.947823 22.148605,111.861748 16.620991,110.665810 
	C12.766611,109.831902 8.941760,108.861511 4.648479,107.921112 
	C4.150337,107.011765 4.107435,106.133377 4.619487,105.048004 
	C13.448659,105.894905 21.722876,106.948784 29.997093,108.002663 
z"/>
<path fill="#19F9FC" opacity="1.000000" stroke="none" 
	d="
M6.013782,42.997772 
	C6.674286,53.510715 7.549396,64.017891 7.832070,74.540993 
	C7.896190,76.927963 5.904890,79.370148 4.520999,81.892357 
	C4.141904,68.063576 4.101496,54.129353 4.347711,39.655025 
	C5.091374,39.101906 5.548414,39.088890 6.004457,39.468063 
	C6.006901,40.906094 6.010341,41.951935 6.013782,42.997772 
z"/>
<path fill="#29AACB" opacity="1.000000" stroke="none" 
	d="
M114.567337,4.122513 
	C112.867928,10.495988 112.686966,16.615345 116.737152,22.860352 
	C116.412743,23.961298 116.202812,24.490179 115.655548,25.014736 
	C114.643547,25.002871 113.968880,24.995329 113.041534,24.810902 
	C112.182854,24.107380 111.576859,23.580742 110.971985,22.781063 
	C110.965515,22.326147 110.957932,22.144274 110.893616,21.700932 
	C110.596642,20.972725 110.356377,20.505989 110.093575,19.697571 
	C109.315987,18.225161 108.560936,17.094431 107.805893,15.963699 
	C107.981949,12.317958 108.158005,8.672218 108.341156,4.573888 
	C110.280014,4.103502 112.211784,4.085708 114.567337,4.122513 
z"/>
<path fill="#20C4E7" opacity="1.000000" stroke="none" 
	d="
M29.818062,107.713867 
	C21.722876,106.948784 13.448659,105.894905 4.689096,104.790710 
	C4.158088,103.180885 4.112424,101.621376 4.137053,99.678604 
	C12.665266,102.065651 22.802505,99.582672 29.818062,107.713867 
z"/>
<path fill="#13BFD9" opacity="1.000000" stroke="none" 
	d="
M125.734024,80.672050 
	C124.870117,80.931725 124.124847,80.726700 123.111542,79.953499 
	C121.570839,75.264107 120.298164,71.142883 119.025497,67.021667 
	C119.576843,64.806618 120.128189,62.591572 120.856140,59.667000 
	C122.323296,61.530872 123.561661,63.104099 125.049866,64.911163 
	C125.484024,70.165794 125.668343,75.186569 125.734024,80.672050 
z"/>
<path fill="#1ED0E4" opacity="1.000000" stroke="none" 
	d="
M123.642258,115.030716 
	C124.945389,119.609596 122.189972,122.500458 119.122246,125.613770 
	C115.247414,125.983582 111.481804,126.036705 107.362953,126.014740 
	C112.432045,122.311951 117.854378,118.684242 123.642258,115.030716 
z"/>
<path fill="#84F8FA" opacity="1.000000" stroke="none" 
	d="
M74.472023,6.006083 
	C67.916527,5.518994 61.829281,5.029003 55.381802,4.363051 
	C72.039566,4.139208 89.057564,4.091325 106.540344,4.113331 
	C105.253731,4.788841 103.512138,5.882488 101.749290,5.917913 
	C92.815987,6.097422 83.877167,6.002150 74.472023,6.006083 
z"/>
<path fill="#1CD6F2" opacity="1.000000" stroke="none" 
	d="
M18.992237,94.967003 
	C17.355392,95.208977 15.156907,96.238037 14.186736,95.545746 
	C11.245499,93.446938 8.352240,93.050835 4.639150,94.102463 
	C4.155524,91.367378 4.098665,88.595665 4.111775,85.394699 
	C5.554446,85.274361 6.927149,85.583275 8.823312,86.242538 
	C12.561928,89.384262 15.777082,92.175636 18.992237,94.967003 
z"/>
<path fill="#5BFAFB" opacity="1.000000" stroke="none" 
	d="
M40.511047,4.126819 
	C40.972031,4.197562 40.986202,4.622559 40.636017,5.040902 
	C34.854187,5.642489 29.422546,5.825734 23.527683,6.006062 
	C19.784475,6.012299 16.485672,5.803895 13.229258,6.085560 
	C9.139139,6.439338 5.875745,8.018277 6.006647,12.970059 
	C5.599662,12.971814 5.192676,12.973569 4.480438,12.975448 
	C4.126750,6.837165 6.501922,4.165711 12.659167,4.070214 
	C21.787342,3.928638 30.919563,4.047868 40.511047,4.126819 
z"/>
<path fill="#1CDCED" opacity="1.000000" stroke="none" 
	d="
M126.086784,45.555126 
	C125.445862,46.361195 124.695282,46.592857 124.395943,47.094032 
	C121.976189,51.145271 119.717644,50.486599 117.339119,47.044117 
	C116.608994,45.987404 115.567436,45.145859 114.348137,43.686401 
	C114.056435,42.092693 114.085083,41.018364 114.464142,39.983910 
	C115.959740,40.607292 117.205589,41.052307 118.232437,41.798634 
	C122.362770,44.800594 123.650520,44.281540 124.955475,38.560101 
	C124.989876,37.117218 125.010658,36.067219 125.268150,35.013729 
	C125.504868,35.010242 125.978241,35.000263 125.978241,35.000263 
	C126.047569,38.368713 126.116905,41.737164 126.086784,45.555126 
z"/>
<path fill="#06568F" opacity="1.000000" stroke="none" 
	d="
M89.089935,125.924850 
	C90.570000,123.384308 92.532684,120.920776 94.751846,118.243774 
	C97.812866,118.582779 100.526886,119.221497 99.560211,123.680664 
	C99.214661,124.837242 99.148163,125.414177 99.081665,125.991112 
	C95.911964,125.994690 92.742256,125.998276 89.089935,125.924850 
z"/>
<path fill="#20B8D4" opacity="1.000000" stroke="none" 
	d="
M126.076263,34.582718 
	C125.978241,35.000263 125.504868,35.010242 124.870628,35.006393 
	C121.487305,34.006149 118.738228,33.009750 115.687599,32.008858 
	C114.983994,32.005089 114.581932,32.005814 114.140816,31.628052 
	C113.750908,29.550774 113.400047,27.851984 113.116928,25.863201 
	C113.221176,25.378069 113.257690,25.182928 113.294212,24.987785 
	C113.968880,24.995329 114.643547,25.002871 115.832840,25.300507 
	C118.444771,29.857164 121.281593,32.054825 125.983414,29.034937 
	C126.047035,30.745014 126.110657,32.455090 126.076263,34.582718 
z"/>
<path fill="#18AAC8" opacity="1.000000" stroke="none" 
	d="
M126.075272,28.594570 
	C121.281593,32.054825 118.444771,29.857164 116.170166,25.304829 
	C116.202812,24.490179 116.412743,23.961298 116.810356,23.215631 
	C120.204048,24.367041 122.999832,23.802355 125.693115,21.109138 
	C126.067917,23.381933 126.117523,25.768066 126.075272,28.594570 
z"/>
<path fill="#18BFD7" opacity="1.000000" stroke="none" 
	d="
M86.789497,119.774948 
	C86.682549,121.764366 86.335579,123.520775 85.994522,125.665039 
	C85.245682,126.069298 84.490921,126.085709 83.362534,126.036896 
	C84.107445,120.641266 84.107445,120.641266 78.789116,120.016411 
	C80.862396,115.468765 80.955986,115.463043 86.789497,119.774948 
z"/>
<path fill="#A3F18C" opacity="1.000000" stroke="none" 
	d="
M6.005453,39.075874 
	C5.548414,39.088890 5.091374,39.101906 4.406101,39.136421 
	C4.133228,36.804234 4.088589,34.450546 4.281101,31.714970 
	C4.518253,31.333084 4.850477,31.397100 4.850477,31.397100 
	C6.322177,32.237316 7.793877,33.077534 9.515404,34.399132 
	C9.328626,35.813721 8.892021,36.746929 8.195953,37.792439 
	C7.292812,38.295116 6.649132,38.685493 6.005453,39.075874 
z"/>
<path fill="#13BBD9" opacity="1.000000" stroke="none" 
	d="
M60.002777,121.392921 
	C62.878826,122.301155 67.409790,120.179909 68.480469,125.521729 
	C67.780006,125.887001 67.137398,125.840027 66.061264,125.438438 
	C63.752010,125.058670 61.876270,125.033516 60.000534,125.008354 
	C60.000973,123.937172 60.001415,122.865997 60.002777,121.392921 
z"/>
<path fill="#1FD2F0" opacity="1.000000" stroke="none" 
	d="
M30.483295,126.020569 
	C33.722054,125.622284 37.423458,125.292664 41.585190,124.942154 
	C45.719418,124.954926 49.393318,124.988586 53.529629,125.251389 
	C53.992043,125.480537 53.995171,125.919258 53.995171,125.919250 
	C46.312096,125.975906 38.629017,126.032570 30.483295,126.020569 
z"/>
<path fill="#1DCDE3" opacity="1.000000" stroke="none" 
	d="
M54.450050,126.005043 
	C53.995171,125.919258 53.992043,125.480537 53.989044,125.261673 
	C55.704742,125.032295 57.423439,125.021797 59.571335,125.009827 
	C61.876270,125.033516 63.752010,125.058670 66.098122,125.102257 
	C62.680641,125.444061 58.792789,125.767448 54.450050,126.005043 
z"/>
<path fill="#3CF0FA" opacity="1.000000" stroke="none" 
	d="
M4.878052,30.897970 
	C4.850477,31.397100 4.518253,31.333084 4.350852,31.310066 
	C4.174770,29.849407 4.166090,28.411762 4.485652,26.697121 
	C4.844472,27.746361 4.875050,29.072599 4.878052,30.897970 
z"/>
<path fill="#1ED0E4" opacity="1.000000" stroke="none" 
	d="
M99.399399,126.040573 
	C99.148163,125.414177 99.214661,124.837242 99.494049,124.054535 
	C100.075714,124.348541 100.444496,124.848320 100.901016,125.649788 
	C100.564888,125.997665 100.141014,126.043854 99.399399,126.040573 
z"/>
<path fill="#24F1FC" opacity="1.000000" stroke="none" 
	d="
M6.004457,39.468063 
	C6.649132,38.685493 7.292812,38.295116 8.560354,38.010086 
	C16.156837,41.530323 23.026342,41.572689 30.055761,38.021778 
	C38.957687,33.524960 48.010452,29.326756 56.915131,25.343449 
	C55.493469,28.375282 52.769974,30.780836 55.056961,34.531609 
	C54.612103,36.034882 54.201969,37.222469 53.563293,38.547913 
	C53.185646,38.782871 53.036541,38.879971 52.887432,38.977074 
	C51.674290,39.429722 50.091812,39.541695 49.308529,40.390858 
	C44.573254,45.524372 37.981960,46.787285 31.888454,49.103340 
	C31.122890,49.394325 30.131874,49.530174 29.660246,50.088440 
	C25.146904,55.430859 20.869995,53.530525 16.386423,49.977718 
	C13.292708,47.526237 9.925900,45.419395 6.347458,43.078156 
	C6.010341,41.951935 6.006901,40.906094 6.004457,39.468063 
z"/>
<path fill="#1FEEFC" opacity="1.000000" stroke="none" 
	d="
M19.343693,95.043510 
	C15.777082,92.175636 12.561928,89.384262 9.168423,86.315063 
	C10.337960,85.574364 11.768961,84.565559 13.017439,84.755623 
	C16.186827,85.238144 19.464888,85.849930 22.335123,87.190170 
	C24.672499,88.281601 26.507448,90.473885 28.519672,92.230156 
	C30.770084,94.194336 32.651287,97.130981 35.252750,98.036095 
	C41.925720,100.357796 48.649918,102.084816 56.132687,99.912537 
	C58.701164,99.166901 62.524754,102.744682 65.564621,104.820251 
	C61.235859,107.192627 57.117416,109.092056 52.998974,110.991486 
	C51.533428,111.186203 50.067879,111.380913 47.942810,111.851898 
	C44.499016,111.789757 41.714737,111.451324 38.930462,111.112900 
	C36.877689,110.446663 34.824917,109.780418 32.427841,109.022675 
	C33.780769,102.864586 29.203373,100.569405 25.347784,97.962318 
	C23.615141,96.790733 21.588427,96.054047 19.343693,95.043510 
z"/>
<path fill="#18EFF7" opacity="1.000000" stroke="none" 
	d="
M49.825935,64.081543 
	C51.641197,63.065121 53.456459,62.048702 54.028618,61.728333 
	C54.578953,57.657166 55.010277,54.466389 56.081375,51.178719 
	C57.122833,51.201344 57.524517,51.320858 58.096298,51.640839 
	C59.058456,52.216797 59.850517,52.592285 60.715172,53.428242 
	C61.352486,57.594841 61.917213,61.300972 62.300522,65.373016 
	C62.796043,66.551125 63.472984,67.363319 64.070763,68.491615 
	C62.981377,70.201057 61.971153,71.594391 60.677002,73.163330 
	C59.525581,74.026909 58.658085,74.714890 57.504372,75.184265 
	C54.754082,71.337616 52.290005,67.709572 49.825935,64.081543 
z"/>
<path fill="#616369" opacity="1.000000" stroke="none" 
	d="
M74.369041,101.124977 
	C73.925552,102.843094 73.482063,104.561203 72.987610,106.613823 
	C72.936646,106.948326 72.986694,106.963409 72.680740,106.985260 
	C71.493362,106.318909 70.611946,105.630714 69.730522,104.942520 
	C66.175514,100.885597 65.487289,96.113319 66.443428,90.236084 
	C67.493736,87.264236 68.347023,85.036179 69.462479,82.898621 
	C70.334541,83.386284 70.944427,83.783463 71.743393,84.502968 
	C72.942848,87.457253 74.423180,90.018768 74.831139,92.740997 
	C75.237366,95.451698 74.567223,98.323700 74.369041,101.124977 
z"/>
<path fill="#5A666F" opacity="1.000000" stroke="none" 
	d="
M49.478119,64.126587 
	C52.290005,67.709572 54.754082,71.337616 57.504425,75.148788 
	C57.790699,75.331917 57.769859,75.255806 57.761288,75.726944 
	C58.091003,79.664337 58.429291,83.130608 58.767578,86.596870 
	C56.924126,85.128105 54.504341,84.009766 53.354786,82.119102 
	C50.803703,77.923355 48.860813,73.354134 46.726868,68.909859 
	C45.500195,66.355103 46.498379,64.822815 49.478119,64.126587 
z"/>
<path fill="#18EFF9" opacity="1.000000" stroke="none" 
	d="
M58.987701,86.914635 
	C58.429291,83.130608 58.091003,79.664337 58.027241,76.038727 
	C61.934612,78.188957 65.567459,80.498543 69.200310,82.808128 
	C68.347023,85.036179 67.493736,87.264236 66.446625,89.789658 
	C63.904472,89.135483 61.556145,88.183945 58.987701,86.914635 
z"/>
<path fill="#1ED4E8" opacity="1.000000" stroke="none" 
	d="
M69.263954,104.947937 
	C70.611946,105.630714 71.493362,106.318909 72.668556,106.962479 
	C69.160347,111.161057 57.872002,113.885521 53.162056,111.324402 
	C57.117416,109.092056 61.235859,107.192627 65.677307,105.138161 
	C66.932671,104.973198 67.865028,104.963280 69.263954,104.947937 
z"/>
<path fill="#595E62" opacity="1.000000" stroke="none" 
	d="
M57.926208,51.440369 
	C57.524517,51.320858 57.122833,51.201344 56.412170,51.024658 
	C54.944515,49.594643 53.902969,48.097168 52.602657,46.875011 
	C49.935074,44.367767 50.706360,42.052673 52.801891,39.334312 
	C53.036541,38.879971 53.185646,38.782871 53.606876,39.010170 
	C55.228073,43.369835 56.577141,47.405102 57.926208,51.440369 
z"/>
<path fill="#1FD4EA" opacity="1.000000" stroke="none" 
	d="
M39.020401,111.420486 
	C41.714737,111.451324 44.499016,111.789757 47.635696,112.053909 
	C47.989716,113.042282 47.991325,114.104935 47.990433,115.564285 
	C46.278275,115.972397 44.568623,115.983803 42.431534,115.996193 
	C41.039516,114.574135 40.074928,113.151108 39.020401,111.420486 
z"/>
<path fill="#1ED0E4" opacity="1.000000" stroke="none" 
	d="
M118.743744,66.839966 
	C120.298164,71.142883 121.570839,75.264107 122.894806,79.749146 
	C122.317703,81.584030 121.212006,83.034470 121.147377,84.529900 
	C120.922997,89.722000 120.734367,94.958549 121.191292,100.119835 
	C121.434769,102.870140 123.032181,105.500580 124.015549,108.590439 
	C117.892868,103.779472 110.029892,106.087234 103.096481,104.335716 
	C101.585381,103.953972 99.373726,105.810387 97.660851,106.910301 
	C95.890045,108.047409 94.333694,109.518478 92.351929,110.924835 
	C92.020325,111.006218 92.002083,110.999794 92.026314,110.606506 
	C92.843956,107.225113 93.649529,104.240173 94.427856,101.248161 
	C95.511887,97.080971 95.447830,93.157745 91.919815,89.608749 
	C90.600151,84.809906 89.304924,80.401253 88.077515,75.620064 
	C88.447075,73.502296 88.748817,71.757072 89.194717,69.673630 
	C89.896118,66.895233 90.453362,64.455055 91.219711,61.748249 
	C94.283531,59.311211 97.138237,57.140797 100.413971,54.980637 
	C106.563828,54.664120 111.060783,57.188313 114.960602,61.094467 
	C116.127731,62.949070 117.294868,64.803673 118.743744,66.839966 
z"/>
<path fill="#2AF0FB" opacity="1.000000" stroke="none" 
	d="
M56.998169,24.999769 
	C48.010452,29.326756 38.957687,33.524960 30.055761,38.021778 
	C23.026342,41.572689 16.156837,41.530323 8.819817,37.897789 
	C8.892021,36.746929 9.328626,35.813721 9.789572,34.568497 
	C22.155884,32.922867 32.368725,26.622063 43.043488,20.944866 
	C48.284317,18.157616 55.208828,18.536180 61.407154,17.887951 
	C60.858204,19.866919 60.273476,21.439968 59.383823,23.048988 
	C58.385323,23.723227 57.691746,24.361498 56.998169,24.999769 
z"/>
<path fill="#C5F6F9" opacity="1.000000" stroke="none" 
	d="
M59.688751,23.013018 
	C60.273476,21.439968 60.858204,19.866919 61.712341,18.037163 
	C62.508053,17.633387 63.034351,17.486317 64.043358,17.228500 
	C64.526070,17.117750 64.994682,17.013336 65.248070,17.035286 
	C65.668739,17.029598 65.836021,17.001961 66.304596,17.164818 
	C69.018463,18.894140 70.424561,21.253725 67.617355,22.973207 
	C65.494774,24.273342 62.260918,29.137163 59.688751,23.013018 
z"/>
<path fill="#5CF3FF" opacity="1.000000" stroke="none" 
	d="
M44.943253,5.089913 
	C51.040344,4.688383 55.369652,7.655139 58.896904,12.673119 
	C57.937382,13.007545 56.869587,13.025258 55.189430,12.844559 
	C54.046200,12.438394 53.515331,12.230642 52.984463,12.022892 
	C51.560726,11.730575 50.136990,11.438257 48.177750,10.788198 
	C46.742584,8.650275 45.842918,6.870094 44.943253,5.089913 
z"/>
<path fill="#3CF0FA" opacity="1.000000" stroke="none" 
	d="
M64.994682,17.013336 
	C64.994682,17.013336 64.526070,17.117750 64.286850,17.100338 
	C63.100090,16.270103 62.152554,15.457282 61.497013,14.334446 
	C62.872047,13.990345 63.955090,13.956259 65.038132,13.922173 
	C65.782455,13.942112 66.526772,13.962050 67.762238,14.238928 
	C68.493385,15.001912 68.733391,15.507957 68.605339,16.019550 
	C67.500298,16.024519 66.763313,16.023941 65.833191,16.165199 
	C65.397644,16.517542 65.182526,16.752975 64.994682,17.013336 
z"/>
<path fill="#5CF3FF" opacity="1.000000" stroke="none" 
	d="
M64.907486,13.635283 
	C63.955090,13.956259 62.872047,13.990345 61.382744,14.042830 
	C60.973866,13.893127 60.971256,13.725027 60.970200,13.305267 
	C62.240124,13.151870 63.508484,13.250131 64.907486,13.635283 
z"/>
<path fill="#48F1FC" opacity="1.000000" stroke="none" 
	d="
M52.987831,12.352461 
	C53.515331,12.230642 54.046200,12.438394 54.789001,12.842100 
	C54.518196,13.318327 54.035454,13.598600 53.276585,13.939960 
	C52.997372,13.561377 52.994286,13.121703 52.987831,12.352461 
z"/>
<path fill="#48F1FC" opacity="1.000000" stroke="none" 
	d="
M44.549751,5.074154 
	C45.842918,6.870094 46.742584,8.650275 47.820667,10.718318 
	C38.654938,12.336679 29.310787,13.667176 19.485310,14.700930 
	C18.958473,14.004581 18.912960,13.604980 18.964680,12.864792 
	C20.704908,10.352464 22.347908,8.180721 23.990906,6.008978 
	C29.422546,5.825734 34.854187,5.642489 40.640285,5.253476 
	C42.048580,5.051269 43.102413,5.054832 44.549751,5.074154 
z"/>
<path fill="#54F1F8" opacity="1.000000" stroke="none" 
	d="
M23.527683,6.006062 
	C22.347908,8.180721 20.704908,10.352464 18.656300,12.672178 
	C14.121146,9.784520 10.499333,11.249996 7.032076,14.085629 
	C6.788447,13.851953 6.544817,13.618277 6.153918,13.177330 
	C5.875745,8.018277 9.139139,6.439338 13.229258,6.085560 
	C16.485672,5.803895 19.784475,6.012299 23.527683,6.006062 
z"/>
<path fill="#94ECAA" opacity="1.000000" stroke="none" 
	d="
M7.027121,14.487462 
	C10.499333,11.249996 14.121146,9.784520 18.559071,13.012764 
	C18.912960,13.604980 18.958473,14.004581 19.059546,14.701097 
	C17.291571,18.401276 14.326714,19.299574 10.692040,19.029684 
	C8.000510,18.829826 6.712483,17.629583 7.027121,14.487462 
z"/>
<path fill="#66EEFD" opacity="1.000000" stroke="none" 
	d="
M68.973404,16.014004 
	C68.733391,15.507957 68.493385,15.001912 68.134514,14.241998 
	C70.387215,14.058459 72.758911,14.124677 75.130302,14.200359 
	C77.207069,14.266640 79.283493,14.343550 81.677887,14.211668 
	C82.744820,14.009891 83.493935,14.012211 84.755905,14.336673 
	C87.515305,15.433769 89.761833,16.208723 92.008369,16.983679 
	C92.451332,16.984650 92.894302,16.985620 93.920776,17.170197 
	C95.668236,16.569473 96.832184,15.785146 97.996132,15.000818 
	C97.996132,15.000818 98.000000,14.999886 98.359085,14.927502 
	C100.149849,14.562303 101.581528,14.269486 103.013206,13.976671 
	C104.402954,14.585967 105.792702,15.195263 107.494171,15.884130 
	C108.560936,17.094431 109.315987,18.225161 109.769493,19.604237 
	C108.094070,19.531364 106.378944,18.518991 105.401848,19.001421 
	C99.194672,22.066135 93.368622,20.506697 87.156837,18.805681 
	C83.385857,17.773048 79.033203,15.129533 74.643219,18.755703 
	C72.517082,17.861128 70.745239,16.937565 68.973404,16.014004 
z"/>
<path fill="#70F3FD" opacity="1.000000" stroke="none" 
	d="
M91.864853,16.667740 
	C89.761833,16.208723 87.515305,15.433769 85.130363,14.338515 
	C87.235085,14.796078 89.478203,15.573938 91.864853,16.667740 
z"/>
<path fill="#70F3FD" opacity="1.000000" stroke="none" 
	d="
M97.657791,15.020705 
	C96.832184,15.785146 95.668236,16.569473 94.253006,17.171494 
	C95.107628,16.339653 96.213547,15.690123 97.657791,15.020705 
z"/>
<path fill="#70F3FD" opacity="1.000000" stroke="none" 
	d="
M102.892731,13.687731 
	C101.581528,14.269486 100.149849,14.562303 98.359749,14.925666 
	C99.074417,12.918994 100.215324,11.044328 102.892731,13.687731 
z"/>
<path fill="#22EFFC" opacity="1.000000" stroke="none" 
	d="
M68.605339,16.019550 
	C70.745239,16.937565 72.517082,17.861128 74.913841,18.979286 
	C78.026451,20.792997 80.514145,22.412109 83.132858,24.364254 
	C84.814461,25.486034 86.284904,26.646767 87.929092,27.000925 
	C96.281929,28.800135 104.679802,30.390295 113.130409,32.440208 
	C113.503860,35.199173 113.808800,37.571606 114.113731,39.944038 
	C114.085083,41.018364 114.056435,42.092693 114.030731,43.569069 
	C114.449348,49.421295 114.865013,54.871475 115.120644,60.708057 
	C111.060783,57.188313 106.563828,54.664120 100.310974,54.679955 
	C98.175613,52.556061 97.128609,51.111134 99.546883,48.714985 
	C103.910690,44.391113 105.479370,39.989002 99.284523,35.243214 
	C96.233810,32.906116 93.777397,30.821577 89.660187,31.516613 
	C85.592323,32.203316 81.436234,32.725578 77.322754,32.699669 
	C71.195328,32.661068 65.072075,32.061615 58.943573,31.775356 
	C58.649204,31.761604 58.321308,32.465679 57.712234,32.970268 
	C56.640854,33.475353 55.866268,33.845638 55.091686,34.215927 
	C52.769974,30.780836 55.493469,28.375282 56.915131,25.343449 
	C57.691746,24.361498 58.385323,23.723227 59.383827,23.048988 
	C62.260918,29.137163 65.494774,24.273342 67.617355,22.973207 
	C70.424561,21.253725 69.018463,18.894140 66.309891,16.927078 
	C66.013885,16.498842 66.026337,16.023365 66.026337,16.023365 
	C66.763313,16.023941 67.500298,16.024519 68.605339,16.019550 
z"/>
<path fill="#20EEFC" opacity="1.000000" stroke="none" 
	d="
M88.009697,75.992607 
	C89.304924,80.401253 90.600151,84.809906 91.604073,89.760521 
	C91.177971,92.259834 90.803329,94.235870 90.954048,96.170975 
	C91.380150,101.641853 90.561287,102.680176 85.014679,102.989288 
	C82.595512,102.375984 80.176353,101.762672 77.409775,100.678207 
	C78.587509,94.309700 80.278778,88.448608 81.576981,82.501709 
	C82.386185,78.794853 84.341728,76.658356 88.009697,75.992607 
z"/>
<path fill="#1BEDF9" opacity="1.000000" stroke="none" 
	d="
M88.077515,75.620064 
	C84.341728,76.658356 82.386185,78.794853 81.576981,82.501709 
	C80.278778,88.448608 78.587509,94.309700 77.034241,100.595276 
	C76.421898,101.015945 75.837677,101.048401 74.811249,101.102921 
	C74.567223,98.323700 75.237366,95.451698 74.831139,92.740997 
	C74.423180,90.018768 72.942848,87.457253 72.168541,84.360214 
	C74.689369,84.281319 76.650276,84.261002 76.084244,80.561615 
	C75.815903,76.683235 75.496284,73.247719 75.482193,69.886200 
	C80.728592,70.474197 78.180199,65.686317 80.236176,63.806431 
	C81.572182,64.142685 83.568207,64.568733 83.641640,65.213684 
	C84.029495,68.620285 86.282211,69.515541 89.050552,70.011848 
	C88.748817,71.757072 88.447075,73.502296 88.077515,75.620064 
z"/>
<path fill="#21E5F4" opacity="1.000000" stroke="none" 
	d="
M85.004150,103.365700 
	C90.561287,102.680176 91.380150,101.641853 90.954048,96.170975 
	C90.803329,94.235870 91.177971,92.259834 91.628494,90.150719 
	C95.447830,93.157745 95.511887,97.080971 94.427856,101.248161 
	C93.649529,104.240173 92.843956,107.225113 92.019318,110.603226 
	C85.206360,110.708855 84.380379,109.852562 85.004150,103.365700 
z"/>
<path fill="#4DEDFD" opacity="1.000000" stroke="none" 
	d="
M83.001831,24.031219 
	C80.514145,22.412109 78.026451,20.792997 75.268143,18.950302 
	C79.033203,15.129533 83.385857,17.773048 87.156837,18.805681 
	C93.368622,20.506697 99.194672,22.066135 105.401848,19.001421 
	C106.378944,18.518991 108.094070,19.531364 109.792038,19.945915 
	C110.356377,20.505989 110.596642,20.972725 110.772919,21.817932 
	C110.796249,22.482306 110.883553,22.768208 110.970856,23.054108 
	C111.576859,23.580742 112.182854,24.107380 113.041534,24.810902 
	C113.257690,25.182928 113.221176,25.378069 112.682693,25.822124 
	C104.196190,24.898172 96.226128,23.603107 88.215202,22.652563 
	C86.555305,22.455605 84.743584,23.538294 83.001831,24.031219 
z"/>
<path fill="#20B8D4" opacity="1.000000" stroke="none" 
	d="
M110.971985,22.781065 
	C110.883553,22.768208 110.796249,22.482306 110.829636,22.079403 
	C110.957932,22.144274 110.965515,22.326147 110.971985,22.781065 
z"/>
<path fill="#1DCFE4" opacity="1.000000" stroke="none" 
	d="
M114.464142,39.983910 
	C113.808800,37.571606 113.503860,35.199173 113.409576,32.427147 
	C113.806786,32.020550 113.993332,32.013546 114.179871,32.006542 
	C114.581932,32.005814 114.983994,32.005089 115.716599,32.371506 
	C117.265762,37.309589 120.262360,39.335667 124.941856,38.952980 
	C123.650520,44.281540 122.362770,44.800594 118.232437,41.798634 
	C117.205589,41.052307 115.959740,40.607292 114.464142,39.983910 
z"/>
<path fill="#1CC1D9" opacity="1.000000" stroke="none" 
	d="
M124.955475,38.560101 
	C120.262360,39.335667 117.265762,37.309589 116.018143,32.375999 
	C118.738228,33.009750 121.487305,34.006149 124.633911,35.009880 
	C125.010658,36.067219 124.989876,37.117218 124.955475,38.560101 
z"/>
<path fill="#2EEFFD" opacity="1.000000" stroke="none" 
	d="
M114.140816,31.628052 
	C113.993332,32.013546 113.806786,32.020550 113.341064,32.040615 
	C104.679802,30.390295 96.281929,28.800135 87.929092,27.000925 
	C86.284904,26.646767 84.814461,25.486034 83.132858,24.364254 
	C84.743584,23.538294 86.555305,22.455605 88.215202,22.652563 
	C96.226128,23.603107 104.196190,24.898172 112.614967,26.112116 
	C113.400047,27.851984 113.750908,29.550774 114.140816,31.628052 
z"/>
<path fill="#5E6C73" opacity="1.000000" stroke="none" 
	d="
M55.056961,34.531609 
	C55.866268,33.845638 56.640854,33.475353 58.029839,33.141319 
	C61.291180,37.083088 63.208912,41.173702 61.644463,46.357983 
	C61.127529,48.747540 60.885056,50.857658 60.642578,52.967773 
	C59.850517,52.592285 59.058456,52.216797 58.096298,51.640839 
	C56.577141,47.405102 55.228073,43.369835 53.835423,38.872314 
	C54.201969,37.222469 54.612103,36.034882 55.056961,34.531609 
z"/>
<path fill="#0D3943" opacity="1.000000" stroke="none" 
	d="
M60.715172,53.428242 
	C60.885056,50.857658 61.127529,48.747540 61.736252,46.588379 
	C62.443363,46.894070 62.784229,47.248814 63.065239,48.059464 
	C62.895485,55.815144 62.899338,55.848679 69.839432,55.051178 
	C72.284805,54.770176 74.706245,54.280762 77.448387,54.074718 
	C77.549850,55.846424 77.341530,57.429916 76.934532,59.319626 
	C71.984550,61.419594 67.233246,63.213348 62.481937,65.007103 
	C61.917213,61.300972 61.352486,57.594841 60.715172,53.428242 
z"/>
<path fill="#074F7B" opacity="1.000000" stroke="none" 
	d="
M75.176674,69.812210 
	C75.496284,73.247719 75.815903,76.683235 75.726425,80.487701 
	C70.531868,78.233673 65.746399,75.610695 60.960930,72.987724 
	C61.971153,71.594391 62.981377,70.201057 64.461510,68.454498 
	C68.346504,68.671585 71.761589,69.241898 75.176674,69.812210 
z"/>
<path fill="#3A4932" opacity="1.000000" stroke="none" 
	d="
M75.482193,69.886200 
	C71.761589,69.241898 68.346504,68.671585 64.540672,68.138382 
	C63.472984,67.363319 62.796043,66.551125 62.300522,65.373016 
	C67.233246,63.213348 71.984550,61.419594 77.239700,59.308754 
	C78.514542,58.839878 79.285545,58.688087 80.009071,58.545643 
	C80.009071,60.439323 80.009071,62.218281 80.009071,63.997238 
	C78.180199,65.686317 80.728592,70.474197 75.482193,69.886200 
z"/>
<path fill="#064468" opacity="1.000000" stroke="none" 
	d="
M60.677002,73.163330 
	C65.746399,75.610695 70.531868,78.233673 75.675156,80.930573 
	C76.650276,84.261002 74.689369,84.281319 71.979462,84.037872 
	C70.944427,83.783463 70.334541,83.386284 69.462479,82.898621 
	C65.567459,80.498543 61.934612,78.188957 58.035812,75.567589 
	C57.769859,75.255806 57.790699,75.331917 57.790642,75.367393 
	C58.658085,74.714890 59.525581,74.026909 60.677002,73.163330 
z"/>
<path fill="#1FF1FC" opacity="1.000000" stroke="none" 
	d="
M63.125095,47.603558 
	C62.784229,47.248814 62.443363,46.894070 62.010708,46.308937 
	C63.208912,41.173702 61.291180,37.083088 58.326633,33.006523 
	C58.321308,32.465679 58.649204,31.761604 58.943573,31.775356 
	C65.072075,32.061615 71.195328,32.661068 77.322754,32.699669 
	C81.436234,32.725578 85.592323,32.203316 89.660187,31.516613 
	C93.777397,30.821577 96.233810,32.906116 99.284523,35.243214 
	C105.479370,39.989002 103.910690,44.391113 99.546883,48.714985 
	C97.128609,51.111134 98.175613,52.556061 99.889946,54.669693 
	C97.138237,57.140797 94.283531,59.311211 90.980042,61.472954 
	C90.006386,60.141338 89.495216,58.812763 88.954132,57.496487 
	C87.223854,53.287285 85.482475,49.082645 83.980225,44.614368 
	C88.012932,41.923626 92.688721,40.586632 94.942673,35.879196 
	C90.463318,35.845360 86.328346,36.445961 82.284233,37.422707 
	C76.589226,38.798176 71.619446,41.142654 70.760643,48.165401 
	C68.936707,49.152611 67.435486,50.023983 65.934258,50.895351 
	C66.272026,50.435085 66.609795,49.974823 66.947563,49.514557 
	C65.673409,48.877556 64.399254,48.240559 63.125095,47.603558 
z"/>
<path fill="#1DEFFB" opacity="1.000000" stroke="none" 
	d="
M83.745384,44.876244 
	C85.482475,49.082645 87.223854,53.287285 88.954132,57.496487 
	C89.495216,58.812763 90.006386,60.141338 90.770920,61.739578 
	C90.453362,64.455055 89.896118,66.895233 89.194717,69.673630 
	C86.282211,69.515541 84.029495,68.620285 83.641640,65.213684 
	C83.568207,64.568733 81.572182,64.142685 80.236176,63.806431 
	C80.009071,62.218281 80.009071,60.439323 80.009071,58.545643 
	C79.285545,58.688087 78.514542,58.839878 77.438377,59.002541 
	C77.341530,57.429916 77.549850,55.846424 77.335884,53.730644 
	C76.647491,51.831402 76.381371,50.464439 76.081535,49.073502 
	C76.047813,49.049530 76.000412,49.117352 76.269516,49.025131 
	C76.728165,48.623646 76.917709,48.314388 77.042885,48.022125 
	C76.978523,48.039120 77.012550,48.167831 77.292000,48.089745 
	C77.779373,47.689827 77.987305,47.367996 78.407257,47.024265 
	C78.619278,47.002365 79.021599,46.861382 79.330032,46.838921 
	C79.951057,46.553905 80.263634,46.291355 80.802010,46.028641 
	C81.376190,45.766880 81.724586,45.505287 82.312210,45.175491 
	C82.551445,45.107288 82.956863,44.818901 83.153961,44.833675 
	C83.351059,44.848450 83.745384,44.876244 83.745384,44.876244 
z"/>
<path fill="#32F0FB" opacity="1.000000" stroke="none" 
	d="
M65.833191,16.165201 
	C66.026337,16.023365 66.013885,16.498842 66.008591,16.736582 
	C65.836021,17.001961 65.668739,17.029598 65.248070,17.035286 
	C65.182526,16.752975 65.397644,16.517542 65.833191,16.165201 
z"/>
<path fill="#55656C" opacity="1.000000" stroke="none" 
	d="
M76.115257,49.097481 
	C76.381371,50.464439 76.647491,51.831402 77.026108,53.542435 
	C74.706245,54.280762 72.284805,54.770176 69.839432,55.051178 
	C62.899338,55.848679 62.895485,55.815144 63.065239,48.059464 
	C64.399254,48.240559 65.673409,48.877556 66.947563,49.514557 
	C66.609795,49.974823 66.272026,50.435085 65.934258,50.895351 
	C67.435486,50.023983 68.936707,49.152611 71.099846,48.307178 
	C73.212921,48.587902 74.664093,48.842690 76.115257,49.097481 
z"/>
<path fill="#5B6B75" opacity="1.000000" stroke="none" 
	d="
M76.081535,49.073505 
	C74.664093,48.842690 73.212921,48.587902 71.422554,48.191338 
	C71.619446,41.142654 76.589226,38.798176 82.284233,37.422707 
	C86.328346,36.445961 90.463318,35.845360 94.942673,35.879196 
	C92.688721,40.586632 88.012932,41.923626 83.980225,44.614368 
	C83.745384,44.876244 83.351059,44.848450 83.018150,44.802139 
	C82.390686,44.790146 82.186592,44.952770 82.072975,45.243694 
	C81.724586,45.505287 81.376190,45.766880 80.529839,46.145729 
	C79.695122,46.462452 79.358360,46.661919 79.021599,46.861382 
	C79.021599,46.861382 78.619278,47.002365 78.188583,47.187347 
	C77.509445,47.637497 77.261002,47.902664 77.012550,48.167831 
	C77.012550,48.167831 76.978523,48.039120 76.849457,48.195938 
	C76.480400,48.607624 76.240410,48.862488 76.000412,49.117352 
	C76.000412,49.117352 76.047813,49.049530 76.081535,49.073505 
z"/>
<path fill="#55656C" opacity="1.000000" stroke="none" 
	d="
M76.269516,49.025131 
	C76.240410,48.862488 76.480400,48.607624 76.913818,48.178940 
	C76.917709,48.314388 76.728165,48.623646 76.269516,49.025131 
z"/>
<path fill="#55656C" opacity="1.000000" stroke="none" 
	d="
M82.312210,45.175491 
	C82.186592,44.952770 82.390686,44.790146 82.821053,44.787361 
	C82.956863,44.818901 82.551445,45.107288 82.312210,45.175491 
z"/>
<path fill="#55656C" opacity="1.000000" stroke="none" 
	d="
M77.292000,48.089745 
	C77.261002,47.902664 77.509445,47.637497 77.976562,47.209244 
	C77.987305,47.367996 77.779373,47.689827 77.292000,48.089745 
z"/>
<path fill="#55656C" opacity="1.000000" stroke="none" 
	d="
M79.330032,46.838921 
	C79.358360,46.661919 79.695122,46.462452 80.304047,46.145897 
	C80.263634,46.291355 79.951057,46.553905 79.330032,46.838921 
z"/>
</svg>